<svg width="166" height="188" viewBox="0 0 166 188" fill="none" xmlns="http://www.w3.org/2000/svg">
<g filter="url(#filter0_d_47_1442)">
<rect x="4" width="157.933" height="180" rx="19.0044" fill="url(#paint0_linear_47_1442)"/>
<path d="M118.103 31.4979C118.103 37.4089 113.231 42.2007 107.22 42.2007C101.209 42.2007 96.3369 37.4089 96.3369 31.4979C96.3369 28.3814 97.6914 25.576 99.8529 23.62C101.791 21.8661 104.378 20.795 107.22 20.795C113.231 20.795 118.103 25.5869 118.103 31.4979Z" fill="#D15842"/>
<path d="M149.512 31.4979C149.512 37.4089 144.64 42.2007 138.629 42.2007C132.619 42.2007 127.746 37.4089 127.746 31.4979C127.746 30.7428 127.826 30.006 127.977 29.2951C129.01 24.4409 133.387 20.795 138.629 20.795C144.64 20.795 149.512 25.5869 149.512 31.4979Z" fill="#D15842"/>
<path d="M137.29 18.7028C137.29 24.0896 133.244 28.5469 127.977 29.2951C127.464 29.368 126.94 29.4056 126.407 29.4056C121.125 29.4056 116.721 25.7044 115.732 20.795C115.596 20.1184 115.524 19.4188 115.524 18.7028C115.524 17.7625 115.648 16.8504 115.879 15.9815C117.103 11.3885 121.353 8 126.407 8C132.418 8 137.29 12.7918 137.29 18.7028Z" fill="#D15842"/>
<path d="M118.103 31.4979C118.103 37.4089 113.231 42.2007 107.22 42.2007H138.629C132.619 42.2007 127.746 37.4089 127.746 31.4979C127.746 30.7428 127.826 30.006 127.977 29.2951C127.464 29.368 126.94 29.4056 126.407 29.4056C121.125 29.4056 116.721 25.7044 115.732 20.795H108.633H107.22C113.231 20.795 118.103 25.5869 118.103 31.4979Z" fill="#D15842"/>
<path d="M115.732 20.795C115.596 20.1184 115.524 19.4188 115.524 18.7028C115.524 17.7625 115.648 16.8504 115.879 15.9815C114.97 17.586 112.247 20.795 108.633 20.795H115.732Z" fill="#D15842"/>
<path d="M38.8639 44.2451C38.8639 53.1699 31.5071 60.4049 22.4319 60.4049C13.3568 60.4049 6 53.1699 6 44.2451C6 39.5397 8.04503 35.3039 11.3087 32.3506C14.2352 29.7024 18.1416 28.0854 22.4319 28.0854C31.5071 28.0854 38.8639 35.3203 38.8639 44.2451Z" fill="#D15842"/>
<path d="M86.2876 44.2451C86.2876 53.1699 78.9308 60.4049 69.8557 60.4049C60.7806 60.4049 53.4237 53.1699 53.4237 44.2451C53.4237 43.1051 53.5438 41.9927 53.7721 40.9193C55.3313 33.59 61.9398 28.0854 69.8557 28.0854C78.9308 28.0854 86.2876 35.3203 86.2876 44.2451Z" fill="#D15842"/>
<path d="M67.8341 24.9264C67.8341 33.0597 61.7242 39.7896 53.7721 40.9193C52.9982 41.0293 52.2069 41.0862 51.4021 41.0862C43.4263 41.0862 36.7777 35.4978 35.284 28.0854C35.0781 27.0637 34.9702 26.0075 34.9702 24.9264C34.9702 23.5066 35.1564 22.1295 35.5061 20.8176C37.3544 13.8827 43.7707 8.7666 51.4021 8.7666C60.4772 8.7666 67.8341 16.0016 67.8341 24.9264Z" fill="#D15842"/>
<path d="M38.8639 44.2451C38.8639 53.1699 31.5071 60.4049 22.4319 60.4049H69.8557C60.7806 60.4049 53.4237 53.1699 53.4237 44.2451C53.4237 43.1051 53.5438 41.9927 53.7721 40.9193C52.9982 41.0293 52.2069 41.0862 51.4021 41.0862C43.4263 41.0862 36.7777 35.4978 35.284 28.0854H24.5653H22.4319C31.5071 28.0854 38.8639 35.3203 38.8639 44.2451Z" fill="#D15842"/>
<path d="M35.284 28.0854C35.0781 27.0637 34.9702 26.0075 34.9702 24.9264C34.9702 23.5066 35.1564 22.1295 35.5061 20.8176C34.1329 23.2402 30.0224 28.0854 24.5653 28.0854H35.284Z" fill="#D15842"/>
<path d="M105 162.412L109.706 157.706" stroke="white" stroke-width="2" stroke-linecap="round" stroke-linejoin="round"/>
<path d="M105 153L109.706 157.706" stroke="white" stroke-width="2" stroke-linecap="round" stroke-linejoin="round"/>
</g>
<defs>
<filter id="filter0_d_47_1442" x="0" y="0" width="165.933" height="191" filterUnits="userSpaceOnUse" color-interpolation-filters="sRGB">
<feFlood flood-opacity="0" result="BackgroundImageFix"/>
<feColorMatrix in="SourceAlpha" type="matrix" values="0 0 0 0 0 0 0 0 0 0 0 0 0 0 0 0 0 0 127 0" result="hardAlpha"/>
<feOffset dy="4"/>
<feGaussianBlur stdDeviation="2"/>
<feComposite in2="hardAlpha" operator="out"/>
<feColorMatrix type="matrix" values="0 0 0 0 0 0 0 0 0 0 0 0 0 0 0 0 0 0 0.25 0"/>
<feBlend mode="normal" in2="BackgroundImageFix" result="effect1_dropShadow_47_1442"/>
<feBlend mode="normal" in="SourceGraphic" in2="effect1_dropShadow_47_1442" result="shape"/>
</filter>
<linearGradient id="paint0_linear_47_1442" x1="82.9666" y1="0" x2="82.9666" y2="180" gradientUnits="userSpaceOnUse">
<stop stop-color="#ED654C"/>
<stop offset="1" stop-color="#D05842"/>
</linearGradient>
</defs>
</svg>
