<svg width="91" height="92" viewBox="0 0 91 92" fill="none" xmlns="http://www.w3.org/2000/svg">
<g filter="url(#filter0_ddd_47_1852)">
<rect x="24" y="8.46924" width="42.1416" height="43.4414" rx="3" fill="#DDF9E4"/>
</g>
<path d="M45.3057 22.4926C41.3066 22.4641 37.6777 23.8883 34.835 25.8138C31.9923 27.7393 29.913 30.1548 29.0186 32.3025C28.9446 32.4848 28.9446 32.6899 29.0186 32.8722C29.913 35.0198 31.9866 37.4239 34.835 39.3494C37.6834 41.2749 41.3123 42.7105 45.3057 42.682C49.3049 42.7105 52.9337 41.2749 55.7764 39.3494C58.6248 37.4239 60.6985 35.0198 61.5929 32.8722C61.6669 32.6899 61.6669 32.4848 61.5929 32.3025C61.2169 31.3967 60.6244 30.4567 59.861 29.5167C59.4736 29.0439 58.9097 28.4002 58.1634 27.7052C56.4316 26.0816 51.8855 22.5382 45.3057 22.4926Z" fill="#F1F0F1"/>
<path d="M45.3057 25.5347C41.4148 25.5347 38.236 28.6907 38.236 32.5816C38.236 36.4725 41.4148 39.6399 45.3057 39.6399C49.1966 39.6399 52.3641 36.4725 52.3641 32.5816C52.3641 28.6907 49.1966 25.5347 45.3057 25.5347Z" fill="#47AE4C"/>
<path d="M44.6506 15.5653C44.1721 15.6336 43.8132 16.1634 43.8246 16.7844V19.1998C43.8189 19.8606 44.229 20.4075 44.7418 20.4132C45.2545 20.4189 45.676 19.8948 45.6817 19.234C45.6817 19.2226 45.6817 19.2112 45.6817 19.1998V16.7844C45.6931 16.1236 45.2886 15.5767 44.7702 15.5596C44.7304 15.5596 44.6905 15.5596 44.6506 15.5653Z" fill="#585857"/>
<path d="M54.0731 16.8072C53.6003 16.699 53.0762 17.0636 52.8654 17.6446L51.9938 19.8949C51.7488 20.5101 51.9368 21.1652 52.4096 21.3589C52.8825 21.5526 53.4692 21.2108 53.7142 20.5956C53.7199 20.5842 53.7199 20.5728 53.7256 20.5614L54.5972 18.3111C54.8479 17.6959 54.6656 17.0408 54.1927 16.8414C54.1529 16.83 54.113 16.8186 54.0731 16.8072Z" fill="#585857"/>
<path d="M27.395 22.2533C27.0988 22.635 27.2013 23.2616 27.64 23.706L29.3091 25.4492C29.7592 25.9334 30.4314 26.0417 30.8131 25.6942C31.1891 25.3467 31.1264 24.6744 30.6764 24.1902C30.6707 24.1845 30.6593 24.1731 30.6536 24.1674L28.9844 22.4242C28.5344 21.94 27.8622 21.826 27.4805 22.1679C27.452 22.1906 27.4235 22.2248 27.395 22.2533Z" fill="#585857"/>
<path d="M61.8834 21.6779C61.4789 21.4102 60.8637 21.5697 60.4592 22.0425L58.8584 23.8484C58.414 24.3383 58.3628 25.0162 58.7388 25.3637C59.1147 25.7113 59.7813 25.5916 60.2256 25.1017C60.2313 25.096 60.2427 25.0846 60.2484 25.0789L61.8492 23.273C62.2935 22.7831 62.3562 22.1052 61.9802 21.752C61.946 21.7292 61.9176 21.7007 61.8834 21.6779Z" fill="#585857"/>
<path d="M35.0743 17.3313C34.6698 17.5991 34.573 18.2314 34.8464 18.784L35.8833 20.9659C36.1624 21.564 36.7663 21.8831 37.2334 21.6723C37.7005 21.4615 37.8543 20.8007 37.5752 20.2025C37.5695 20.1911 37.5638 20.1797 37.5581 20.174L36.527 17.9865C36.2535 17.3826 35.6497 17.0636 35.1826 17.2687C35.1427 17.2914 35.1085 17.3085 35.0743 17.3313Z" fill="#585857"/>
<path d="M42.3833 31.841C42.4516 31.5733 42.5542 31.3283 42.6795 31.1005C42.8048 31.579 43.1751 31.9778 43.6878 32.1088C44.4341 32.2968 45.2032 31.841 45.3912 31.0948C45.5393 30.5194 45.2943 29.9326 44.8386 29.6079C45.2317 29.5452 45.6418 29.5566 46.052 29.6649C47.6699 30.075 48.6497 31.7157 48.2339 33.3336C47.8237 34.9515 46.183 35.9199 44.5651 35.5098C42.9416 35.0996 41.9731 33.4589 42.3833 31.841Z" fill="#585857"/>
<defs>
<filter id="filter0_ddd_47_1852" x="0" y="0.469238" width="90.1416" height="91.4414" filterUnits="userSpaceOnUse" color-interpolation-filters="sRGB">
<feFlood flood-opacity="0" result="BackgroundImageFix"/>
<feColorMatrix in="SourceAlpha" type="matrix" values="0 0 0 0 0 0 0 0 0 0 0 0 0 0 0 0 0 0 127 0" result="hardAlpha"/>
<feOffset/>
<feGaussianBlur stdDeviation="0.5"/>
<feColorMatrix type="matrix" values="0 0 0 0 0 0 0 0 0 0 0 0 0 0 0 0 0 0 0.04 0"/>
<feBlend mode="normal" in2="BackgroundImageFix" result="effect1_dropShadow_47_1852"/>
<feColorMatrix in="SourceAlpha" type="matrix" values="0 0 0 0 0 0 0 0 0 0 0 0 0 0 0 0 0 0 127 0" result="hardAlpha"/>
<feOffset dy="2"/>
<feGaussianBlur stdDeviation="3"/>
<feColorMatrix type="matrix" values="0 0 0 0 0 0 0 0 0 0 0 0 0 0 0 0 0 0 0.04 0"/>
<feBlend mode="normal" in2="effect1_dropShadow_47_1852" result="effect2_dropShadow_47_1852"/>
<feColorMatrix in="SourceAlpha" type="matrix" values="0 0 0 0 0 0 0 0 0 0 0 0 0 0 0 0 0 0 127 0" result="hardAlpha"/>
<feOffset dy="16"/>
<feGaussianBlur stdDeviation="12"/>
<feColorMatrix type="matrix" values="0 0 0 0 0 0 0 0 0 0 0 0 0 0 0 0 0 0 0.06 0"/>
<feBlend mode="normal" in2="effect2_dropShadow_47_1852" result="effect3_dropShadow_47_1852"/>
<feBlend mode="normal" in="SourceGraphic" in2="effect3_dropShadow_47_1852" result="shape"/>
</filter>
</defs>
</svg>
