<svg width="91" height="92" viewBox="0 0 91 92" fill="none" xmlns="http://www.w3.org/2000/svg">
<g filter="url(#filter0_ddd_47_1841)">
<rect x="24" y="8.21216" width="42.1416" height="43.4414" rx="3" fill="#E4F0FF"/>
</g>
<g clip-path="url(#clip0_47_1841)">
<path d="M58.062 48.7976H60.1384" stroke="white" stroke-width="0.7667" stroke-miterlimit="10"/>
<path d="M53.9294 35.1134L50.8047 38.2381L36.6005 23.9895L33.5282 17.6998L39.7211 20.8689L53.9294 35.1134Z" fill="#47AE4C"/>
<path d="M39.6042 37.8753L36.4836 34.7506L50.5587 20.6674L56.8484 17.5951L53.6794 23.792L39.6042 37.8753Z" fill="#BE181B"/>
<path d="M36.4836 34.7506L50.5305 20.6996L53.6512 23.8202L39.6042 37.8753" fill="#ECB00B"/>
<path d="M50.8047 38.2381L36.6287 24.0218L39.7534 20.9011L53.9294 35.1134" fill="#4772B7"/>
<path d="M53.9294 35.1134L57.0016 41.4031L50.8047 38.2381" fill="#ECB00B"/>
<path d="M39.6042 37.8753L33.3145 40.9476L36.4836 34.7506" fill="#4772B7"/>
</g>
<defs>
<filter id="filter0_ddd_47_1841" x="0" y="0.212158" width="90.1416" height="91.4414" filterUnits="userSpaceOnUse" color-interpolation-filters="sRGB">
<feFlood flood-opacity="0" result="BackgroundImageFix"/>
<feColorMatrix in="SourceAlpha" type="matrix" values="0 0 0 0 0 0 0 0 0 0 0 0 0 0 0 0 0 0 127 0" result="hardAlpha"/>
<feOffset/>
<feGaussianBlur stdDeviation="0.5"/>
<feColorMatrix type="matrix" values="0 0 0 0 0 0 0 0 0 0 0 0 0 0 0 0 0 0 0.04 0"/>
<feBlend mode="normal" in2="BackgroundImageFix" result="effect1_dropShadow_47_1841"/>
<feColorMatrix in="SourceAlpha" type="matrix" values="0 0 0 0 0 0 0 0 0 0 0 0 0 0 0 0 0 0 127 0" result="hardAlpha"/>
<feOffset dy="2"/>
<feGaussianBlur stdDeviation="3"/>
<feColorMatrix type="matrix" values="0 0 0 0 0 0 0 0 0 0 0 0 0 0 0 0 0 0 0.04 0"/>
<feBlend mode="normal" in2="effect1_dropShadow_47_1841" result="effect2_dropShadow_47_1841"/>
<feColorMatrix in="SourceAlpha" type="matrix" values="0 0 0 0 0 0 0 0 0 0 0 0 0 0 0 0 0 0 127 0" result="hardAlpha"/>
<feOffset dy="16"/>
<feGaussianBlur stdDeviation="12"/>
<feColorMatrix type="matrix" values="0 0 0 0 0 0 0 0 0 0 0 0 0 0 0 0 0 0 0.06 0"/>
<feBlend mode="normal" in2="effect2_dropShadow_47_1841" result="effect3_dropShadow_47_1841"/>
<feBlend mode="normal" in="SourceGraphic" in2="effect3_dropShadow_47_1841" result="shape"/>
</filter>
<clipPath id="clip0_47_1841">
<rect width="40" height="40" fill="white" transform="translate(25.2266 9.55957)"/>
</clipPath>
</defs>
</svg>
