<svg width="91" height="93" viewBox="0 0 91 93" fill="none" xmlns="http://www.w3.org/2000/svg">
<g filter="url(#filter0_ddd_47_1865)">
<rect x="24" y="8.72607" width="42.1416" height="43.4414" rx="3" fill="#FFEADA"/>
</g>
<path d="M34.2281 39.2751C34.2281 39.4748 34.3307 39.6638 34.5035 39.7718C35.7831 40.5817 40.297 42.1691 45.6423 42.1691C50.9984 42.1691 55.5176 40.5763 56.7972 39.7718C56.97 39.6638 57.0726 39.4748 57.0726 39.2751V28.6115C57.0348 25.8038 57.4397 25.3773 57.0672 25.4799L46.0472 29.2C45.9338 29.2324 45.1077 29.1136 44.9943 29.0812L34.3577 25.4745C34.3577 25.4745 34.2281 28.2173 34.2281 28.6061V39.2751Z" fill="#F9DB98"/>
<path d="M46.8679 35.7602V38.5408C46.8679 39.1941 46.3172 39.7178 45.6585 39.68C45.0537 39.6423 44.5894 39.1293 44.5894 38.5246V35.7602C44.0549 35.3984 43.7039 34.7829 43.7039 34.0864C43.7039 32.9687 44.611 32.0616 45.7287 32.0616C46.8463 32.0616 47.7534 32.9687 47.7534 34.0864C47.7534 34.7829 47.4024 35.3984 46.8679 35.7602Z" fill="#595957"/>
<path d="M47.0623 34.5669L51.2575 35.3282C51.3223 36.1219 51.9324 36.8076 52.7693 36.9156C53.6548 37.0344 54.4971 36.4513 54.7023 35.5766C54.9291 34.5993 54.2865 33.6382 53.3147 33.4601C52.5156 33.3143 51.7435 33.7408 51.4195 34.4481L44.5894 33.2063L44.4274 34.081L44.4328 34.0864L47.0623 34.5669ZM53.1527 34.3455C53.617 34.4319 53.9248 34.8747 53.8438 35.339C53.7574 35.8034 53.3147 36.1111 52.8503 36.0247C52.386 35.9383 52.0782 35.4956 52.1592 35.0313C52.2456 34.5669 52.6883 34.2592 53.1527 34.3455Z" fill="#595957"/>
<path d="M63.6759 24.2974L63.1036 24.1409C63.1036 24.1409 63.1036 24.1409 63.0982 24.1409L60.2312 23.3472C60.2258 23.3472 60.215 23.3418 60.2096 23.3418L52.3374 21.1929L46.8355 19.6865C46.8247 19.6865 46.8031 19.6811 46.7707 19.6811C46.0796 19.5191 45.3561 19.5191 44.665 19.6811C44.638 19.6811 44.6218 19.6865 44.6164 19.6865L28.2565 24.1409C28.2349 24.1463 28.2133 24.1625 28.1917 24.1841L27.7814 24.2974C27.0417 24.4972 27.0417 25.5447 27.7814 25.7445L41.8412 29.5672L44.4814 30.2853C45.2805 30.5012 46.1228 30.5066 46.9219 30.2907H46.9327C46.9381 30.2907 47.0407 30.2637 47.0515 30.2637L54.2433 28.3037L63.6759 25.7445C64.4102 25.5501 64.4102 24.5026 63.6759 24.2974Z" fill="#EFB802"/>
<defs>
<filter id="filter0_ddd_47_1865" x="0" y="0.726074" width="90.1416" height="91.4414" filterUnits="userSpaceOnUse" color-interpolation-filters="sRGB">
<feFlood flood-opacity="0" result="BackgroundImageFix"/>
<feColorMatrix in="SourceAlpha" type="matrix" values="0 0 0 0 0 0 0 0 0 0 0 0 0 0 0 0 0 0 127 0" result="hardAlpha"/>
<feOffset/>
<feGaussianBlur stdDeviation="0.5"/>
<feColorMatrix type="matrix" values="0 0 0 0 0 0 0 0 0 0 0 0 0 0 0 0 0 0 0.04 0"/>
<feBlend mode="normal" in2="BackgroundImageFix" result="effect1_dropShadow_47_1865"/>
<feColorMatrix in="SourceAlpha" type="matrix" values="0 0 0 0 0 0 0 0 0 0 0 0 0 0 0 0 0 0 127 0" result="hardAlpha"/>
<feOffset dy="2"/>
<feGaussianBlur stdDeviation="3"/>
<feColorMatrix type="matrix" values="0 0 0 0 0 0 0 0 0 0 0 0 0 0 0 0 0 0 0.04 0"/>
<feBlend mode="normal" in2="effect1_dropShadow_47_1865" result="effect2_dropShadow_47_1865"/>
<feColorMatrix in="SourceAlpha" type="matrix" values="0 0 0 0 0 0 0 0 0 0 0 0 0 0 0 0 0 0 127 0" result="hardAlpha"/>
<feOffset dy="16"/>
<feGaussianBlur stdDeviation="12"/>
<feColorMatrix type="matrix" values="0 0 0 0 0 0 0 0 0 0 0 0 0 0 0 0 0 0 0.06 0"/>
<feBlend mode="normal" in2="effect2_dropShadow_47_1865" result="effect3_dropShadow_47_1865"/>
<feBlend mode="normal" in="SourceGraphic" in2="effect3_dropShadow_47_1865" result="shape"/>
</filter>
</defs>
</svg>
